<mxfile host="app.diagrams.net" agent="Mozilla/5.0 (X11; Linux x86_64) AppleWebKit/537.36 (KHTML, like Gecko) Chrome/130.0.0.0 Safari/537.36" version="24.8.3">
  <diagram name="Page-1" id="N8ZbpiGRGIRZHxx_rcnO">
    <mxGraphModel dx="4148" dy="1512" grid="1" gridSize="10" guides="1" tooltips="1" connect="1" arrows="1" fold="1" page="1" pageScale="1" pageWidth="850" pageHeight="1100" background="#F7F9FB" math="0" shadow="0">
      <root>
        <mxCell id="0" />
        <mxCell id="1" parent="0" />
        <mxCell id="1Mxk7JRTgu_WLiJaFfyo-1" value="test/src" style="rounded=1;whiteSpace=wrap;html=1;sketch=1;curveFitting=1;jiggle=2;fillColor=none;fontColor=#333333;strokeColor=#000000;verticalAlign=bottom;align=left;fontFamily=Mynerve;fontSource=https%3A%2F%2Ffonts.googleapis.com%2Fcss%3Ffamily%3DMynerve;fontSize=17;spacingLeft=8;spacingBottom=4;dashed=1;dashPattern=12 12;fontStyle=0;arcSize=6;" parent="1" vertex="1">
          <mxGeometry x="40" y="2630" width="640" height="360" as="geometry" />
        </mxCell>
        <mxCell id="RQrfbhy5ZBHukZ2OIo1w-63" value="test/src" style="rounded=1;whiteSpace=wrap;html=1;sketch=1;curveFitting=1;jiggle=2;fillColor=none;fontColor=#333333;strokeColor=#000000;verticalAlign=bottom;align=left;fontFamily=Mynerve;fontSource=https%3A%2F%2Ffonts.googleapis.com%2Fcss%3Ffamily%3DMynerve;fontSize=17;spacingLeft=8;spacingBottom=4;dashed=1;dashPattern=12 12;fontStyle=0;arcSize=6;" parent="1" vertex="1">
          <mxGeometry x="40" y="2150" width="640" height="140" as="geometry" />
        </mxCell>
        <mxCell id="RQrfbhy5ZBHukZ2OIo1w-13" value="" style="endArrow=open;html=1;rounded=0;endFill=0;endSize=11;strokeWidth=2;sketch=1;curveFitting=1;jiggle=2;" parent="1" edge="1">
          <mxGeometry width="50" height="50" relative="1" as="geometry">
            <mxPoint x="40" y="1329.5" as="sourcePoint" />
            <mxPoint x="660" y="1329.5" as="targetPoint" />
          </mxGeometry>
        </mxCell>
        <mxCell id="RQrfbhy5ZBHukZ2OIo1w-2" value="Then" style="rounded=1;whiteSpace=wrap;html=1;fillColor=#F7BCFD;fontFamily=Mynerve;fontSource=https%3A%2F%2Ffonts.googleapis.com%2Fcss%3Ffamily%3DMynerve;fontSize=21;sketch=1;curveFitting=1;jiggle=2;shadow=0;fillStyle=solid;" parent="1" vertex="1">
          <mxGeometry x="490" y="1300" width="120" height="60" as="geometry" />
        </mxCell>
        <mxCell id="RQrfbhy5ZBHukZ2OIo1w-3" value="When" style="rounded=1;whiteSpace=wrap;html=1;fillColor=#95DAFE;fontFamily=Mynerve;fontSource=https%3A%2F%2Ffonts.googleapis.com%2Fcss%3Ffamily%3DMynerve;fontSize=21;sketch=1;curveFitting=1;jiggle=2;shadow=0;fillStyle=solid;" parent="1" vertex="1">
          <mxGeometry x="290" y="1300" width="120" height="60" as="geometry" />
        </mxCell>
        <mxCell id="RQrfbhy5ZBHukZ2OIo1w-4" value="Given" style="rounded=1;whiteSpace=wrap;html=1;fillColor=#FFD6A2;fontFamily=Mynerve;fontSource=https%3A%2F%2Ffonts.googleapis.com%2Fcss%3Ffamily%3DMynerve;fontSize=21;sketch=1;curveFitting=1;jiggle=2;shadow=0;fillStyle=solid;" parent="1" vertex="1">
          <mxGeometry x="90" y="1300" width="120" height="60" as="geometry" />
        </mxCell>
        <mxCell id="RQrfbhy5ZBHukZ2OIo1w-5" value="1" style="rounded=0;whiteSpace=wrap;html=1;fontStyle=1;fillColor=#000000;fontColor=#FFFFFF;fontSize=20;" parent="1" vertex="1">
          <mxGeometry x="135" y="1250" width="30" height="30" as="geometry" />
        </mxCell>
        <mxCell id="RQrfbhy5ZBHukZ2OIo1w-6" value="2" style="rounded=0;whiteSpace=wrap;html=1;fontStyle=1;fillColor=#000000;fontColor=#FFFFFF;fontSize=20;" parent="1" vertex="1">
          <mxGeometry x="335" y="1250" width="30" height="30" as="geometry" />
        </mxCell>
        <mxCell id="RQrfbhy5ZBHukZ2OIo1w-7" value="3" style="rounded=0;whiteSpace=wrap;html=1;fontStyle=1;fillColor=#000000;fontColor=#FFFFFF;fontSize=20;" parent="1" vertex="1">
          <mxGeometry x="535" y="1250" width="30" height="30" as="geometry" />
        </mxCell>
        <mxCell id="RQrfbhy5ZBHukZ2OIo1w-37" value="main/src" style="rounded=1;whiteSpace=wrap;html=1;sketch=1;curveFitting=1;jiggle=2;fillColor=none;fontColor=#333333;strokeColor=#000000;verticalAlign=top;align=left;fontFamily=Mynerve;fontSource=https%3A%2F%2Ffonts.googleapis.com%2Fcss%3Ffamily%3DMynerve;fontSize=17;spacingLeft=8;spacingTop=2;dashed=1;dashPattern=12 12;fontStyle=0" parent="1" vertex="1">
          <mxGeometry x="40" y="1480" width="640" height="120" as="geometry" />
        </mxCell>
        <mxCell id="RQrfbhy5ZBHukZ2OIo1w-38" value="test/src" style="rounded=1;whiteSpace=wrap;html=1;sketch=1;curveFitting=1;jiggle=2;fillColor=none;fontColor=#333333;strokeColor=#000000;verticalAlign=bottom;align=left;fontFamily=Mynerve;fontSource=https%3A%2F%2Ffonts.googleapis.com%2Fcss%3Ffamily%3DMynerve;fontSize=17;spacingLeft=8;spacingBottom=4;dashed=1;dashPattern=12 12;fontStyle=0" parent="1" vertex="1">
          <mxGeometry x="40" y="1680" width="640" height="120" as="geometry" />
        </mxCell>
        <mxCell id="RQrfbhy5ZBHukZ2OIo1w-40" value="PersonRecord" style="rounded=1;whiteSpace=wrap;html=1;sketch=1;curveFitting=1;jiggle=2;fillColor=none;strokeColor=#000000;fontFamily=Mynerve;fontSource=https%3A%2F%2Ffonts.googleapis.com%2Fcss%3Ffamily%3DMynerve;fontSize=20;fontStyle=0" parent="1" vertex="1">
          <mxGeometry x="160" y="1505" width="160" height="70" as="geometry" />
        </mxCell>
        <mxCell id="RQrfbhy5ZBHukZ2OIo1w-53" value="creates" style="edgeStyle=orthogonalEdgeStyle;rounded=0;orthogonalLoop=1;jettySize=auto;html=1;sketch=1;curveFitting=1;jiggle=2;fontFamily=Mynerve;fontSource=https%3A%2F%2Ffonts.googleapis.com%2Fcss%3Ffamily%3DMynerve;fontSize=21;fontStyle=0;labelBackgroundColor=#F7F9FB;endSize=11;endArrow=open;endFill=0;" parent="1" source="RQrfbhy5ZBHukZ2OIo1w-42" target="RQrfbhy5ZBHukZ2OIo1w-40" edge="1">
          <mxGeometry relative="1" as="geometry" />
        </mxCell>
        <mxCell id="RQrfbhy5ZBHukZ2OIo1w-42" value="PersonRecord&lt;div style=&quot;font-size: 21px;&quot;&gt;&lt;span style=&quot;font-size: 21px;&quot;&gt;Fixtures&lt;/span&gt;&lt;/div&gt;" style="rounded=1;whiteSpace=wrap;html=1;sketch=1;curveFitting=1;jiggle=2;fillColor=#FFD6A2;strokeColor=#000000;fontFamily=Mynerve;fontSource=https%3A%2F%2Ffonts.googleapis.com%2Fcss%3Ffamily%3DMynerve;fontSize=21;fillStyle=solid;fontStyle=0" parent="1" vertex="1">
          <mxGeometry x="160" y="1705" width="160" height="70" as="geometry" />
        </mxCell>
        <mxCell id="RQrfbhy5ZBHukZ2OIo1w-60" value="tests" style="edgeStyle=orthogonalEdgeStyle;rounded=1;orthogonalLoop=1;jettySize=auto;html=1;entryX=1;entryY=0.5;entryDx=0;entryDy=0;sketch=1;curveFitting=1;jiggle=2;fontFamily=Mynerve;fontSource=https%3A%2F%2Ffonts.googleapis.com%2Fcss%3Ffamily%3DMynerve;fontSize=21;curved=0;fontStyle=0;exitX=0.5;exitY=0;exitDx=0;exitDy=0;labelBackgroundColor=#F7F9FB;endSize=11;endArrow=open;endFill=0;" parent="1" source="RQrfbhy5ZBHukZ2OIo1w-46" target="RQrfbhy5ZBHukZ2OIo1w-40" edge="1">
          <mxGeometry x="-0.679" relative="1" as="geometry">
            <mxPoint as="offset" />
          </mxGeometry>
        </mxCell>
        <mxCell id="RQrfbhy5ZBHukZ2OIo1w-61" value="&amp;nbsp;uses&amp;nbsp;" style="edgeStyle=orthogonalEdgeStyle;rounded=0;orthogonalLoop=1;jettySize=auto;html=1;entryX=1;entryY=0.5;entryDx=0;entryDy=0;sketch=1;curveFitting=1;jiggle=2;fontSize=21;fontFamily=Mynerve;fontSource=https%3A%2F%2Ffonts.googleapis.com%2Fcss%3Ffamily%3DMynerve;labelBackgroundColor=#F7F9FB;endSize=11;endArrow=open;endFill=0;" parent="1" source="RQrfbhy5ZBHukZ2OIo1w-46" target="RQrfbhy5ZBHukZ2OIo1w-42" edge="1">
          <mxGeometry relative="1" as="geometry" />
        </mxCell>
        <mxCell id="RQrfbhy5ZBHukZ2OIo1w-46" value="PersonRecord&lt;div style=&quot;font-size: 21px;&quot;&gt;&lt;span style=&quot;font-size: 21px;&quot;&gt;Test&lt;/span&gt;&lt;/div&gt;" style="rounded=1;whiteSpace=wrap;html=1;sketch=1;curveFitting=1;jiggle=2;fillColor=none;strokeColor=#000000;fontFamily=Mynerve;fontSource=https%3A%2F%2Ffonts.googleapis.com%2Fcss%3Ffamily%3DMynerve;fontSize=21;fontStyle=0" parent="1" vertex="1">
          <mxGeometry x="480" y="1705" width="160" height="70" as="geometry" />
        </mxCell>
        <mxCell id="RQrfbhy5ZBHukZ2OIo1w-50" value="1" style="rounded=0;whiteSpace=wrap;html=1;fontStyle=1;fillColor=#000000;fontColor=#FFFFFF;fontSize=20;" parent="1" vertex="1">
          <mxGeometry x="60" y="1700" width="30" height="30" as="geometry" />
        </mxCell>
        <mxCell id="RQrfbhy5ZBHukZ2OIo1w-62" value="main/src" style="rounded=1;whiteSpace=wrap;html=1;sketch=1;curveFitting=1;jiggle=2;fillColor=none;fontColor=#333333;strokeColor=#000000;verticalAlign=top;align=left;fontFamily=Mynerve;fontSource=https%3A%2F%2Ffonts.googleapis.com%2Fcss%3Ffamily%3DMynerve;fontSize=17;spacingLeft=8;spacingTop=2;dashed=1;dashPattern=12 12;fontStyle=0" parent="1" vertex="1">
          <mxGeometry x="40" y="1920" width="640" height="120" as="geometry" />
        </mxCell>
        <mxCell id="RQrfbhy5ZBHukZ2OIo1w-64" value="PersonRecord&lt;div&gt;Repository&lt;/div&gt;" style="rounded=1;whiteSpace=wrap;html=1;sketch=1;curveFitting=1;jiggle=2;fillColor=none;strokeColor=#000000;fontFamily=Mynerve;fontSource=https%3A%2F%2Ffonts.googleapis.com%2Fcss%3Ffamily%3DMynerve;fontSize=20;fontStyle=0" parent="1" vertex="1">
          <mxGeometry x="140" y="1945" width="160" height="70" as="geometry" />
        </mxCell>
        <mxCell id="RQrfbhy5ZBHukZ2OIo1w-75" value="provides&lt;div style=&quot;font-size: 21px;&quot;&gt;test-double&lt;/div&gt;" style="edgeStyle=orthogonalEdgeStyle;rounded=0;orthogonalLoop=1;jettySize=auto;html=1;sketch=1;curveFitting=1;jiggle=2;fontFamily=Mynerve;fontSource=https%3A%2F%2Ffonts.googleapis.com%2Fcss%3Ffamily%3DMynerve;fontSize=21;labelBackgroundColor=#F7F9FB;endArrow=open;endFill=0;endSize=11;" parent="1" source="RQrfbhy5ZBHukZ2OIo1w-66" target="RQrfbhy5ZBHukZ2OIo1w-64" edge="1">
          <mxGeometry relative="1" as="geometry" />
        </mxCell>
        <mxCell id="RQrfbhy5ZBHukZ2OIo1w-66" value="PersonRecord&lt;div style=&quot;font-size: 21px;&quot;&gt;Repository&lt;/div&gt;&lt;div style=&quot;font-size: 21px;&quot;&gt;Trait&lt;/div&gt;" style="rounded=1;whiteSpace=wrap;html=1;sketch=1;curveFitting=1;jiggle=2;fillColor=#FFD6A2;strokeColor=#000000;fontFamily=Mynerve;fontSource=https%3A%2F%2Ffonts.googleapis.com%2Fcss%3Ffamily%3DMynerve;fontSize=21;fillStyle=solid;fontStyle=0" parent="1" vertex="1">
          <mxGeometry x="140" y="2175" width="160" height="90" as="geometry" />
        </mxCell>
        <mxCell id="RQrfbhy5ZBHukZ2OIo1w-74" value="tests" style="edgeStyle=orthogonalEdgeStyle;rounded=0;orthogonalLoop=1;jettySize=auto;html=1;entryX=0.5;entryY=1;entryDx=0;entryDy=0;sketch=1;curveFitting=1;jiggle=2;fontFamily=Mynerve;fontSource=https%3A%2F%2Ffonts.googleapis.com%2Fcss%3Ffamily%3DMynerve;fontSize=21;labelBackgroundColor=#F7F9FB;endArrow=open;endFill=0;endSize=11;" parent="1" source="RQrfbhy5ZBHukZ2OIo1w-69" target="RQrfbhy5ZBHukZ2OIo1w-71" edge="1">
          <mxGeometry relative="1" as="geometry" />
        </mxCell>
        <mxCell id="RQrfbhy5ZBHukZ2OIo1w-76" value="&amp;nbsp;uses&amp;nbsp;" style="edgeStyle=orthogonalEdgeStyle;rounded=0;orthogonalLoop=1;jettySize=auto;html=1;entryX=1;entryY=0.5;entryDx=0;entryDy=0;sketch=1;curveFitting=1;jiggle=2;fontSize=21;fontFamily=Mynerve;fontSource=https%3A%2F%2Ffonts.googleapis.com%2Fcss%3Ffamily%3DMynerve;labelBackgroundColor=#F7F9FB;endArrow=open;endFill=0;endSize=11;" parent="1" source="RQrfbhy5ZBHukZ2OIo1w-69" target="RQrfbhy5ZBHukZ2OIo1w-66" edge="1">
          <mxGeometry relative="1" as="geometry" />
        </mxCell>
        <mxCell id="RQrfbhy5ZBHukZ2OIo1w-69" value="RegisterPersonRecord&lt;div&gt;UseCase&lt;/div&gt;&lt;div&gt;Test&lt;/div&gt;" style="rounded=1;whiteSpace=wrap;html=1;sketch=1;curveFitting=1;jiggle=2;fillColor=none;strokeColor=#000000;fontFamily=Mynerve;fontSource=https%3A%2F%2Ffonts.googleapis.com%2Fcss%3Ffamily%3DMynerve;fontSize=21;fontStyle=0" parent="1" vertex="1">
          <mxGeometry x="440" y="2175" width="220" height="90" as="geometry" />
        </mxCell>
        <mxCell id="RQrfbhy5ZBHukZ2OIo1w-70" value="1" style="rounded=0;whiteSpace=wrap;html=1;fontStyle=1;fillColor=#000000;fontColor=#FFFFFF;fontSize=20;" parent="1" vertex="1">
          <mxGeometry x="60" y="2170" width="30" height="30" as="geometry" />
        </mxCell>
        <mxCell id="RQrfbhy5ZBHukZ2OIo1w-73" value="&amp;nbsp;uses&amp;nbsp;" style="edgeStyle=orthogonalEdgeStyle;rounded=0;orthogonalLoop=1;jettySize=auto;html=1;sketch=1;curveFitting=1;jiggle=2;fontSize=21;fontFamily=Mynerve;fontSource=https%3A%2F%2Ffonts.googleapis.com%2Fcss%3Ffamily%3DMynerve;labelBackgroundColor=#F7F9FB;endArrow=open;endFill=0;endSize=11;" parent="1" source="RQrfbhy5ZBHukZ2OIo1w-71" target="RQrfbhy5ZBHukZ2OIo1w-64" edge="1">
          <mxGeometry relative="1" as="geometry" />
        </mxCell>
        <mxCell id="RQrfbhy5ZBHukZ2OIo1w-71" value="RegisterPersonRecord&lt;div&gt;UseCase&lt;/div&gt;" style="rounded=1;whiteSpace=wrap;html=1;sketch=1;curveFitting=1;jiggle=2;fillColor=none;strokeColor=#000000;fontFamily=Mynerve;fontSource=https%3A%2F%2Ffonts.googleapis.com%2Fcss%3Ffamily%3DMynerve;fontSize=20;fontStyle=0" parent="1" vertex="1">
          <mxGeometry x="440" y="1945" width="220" height="70" as="geometry" />
        </mxCell>
        <mxCell id="1Mxk7JRTgu_WLiJaFfyo-4" value="main/src" style="rounded=1;whiteSpace=wrap;html=1;sketch=1;curveFitting=1;jiggle=2;fillColor=none;fontColor=#333333;strokeColor=#000000;verticalAlign=top;align=left;fontFamily=Mynerve;fontSource=https%3A%2F%2Ffonts.googleapis.com%2Fcss%3Ffamily%3DMynerve;fontSize=17;spacingLeft=8;spacingTop=2;dashed=1;dashPattern=12 12;fontStyle=0" parent="1" vertex="1">
          <mxGeometry x="40" y="2400" width="640" height="130" as="geometry" />
        </mxCell>
        <mxCell id="1Mxk7JRTgu_WLiJaFfyo-5" value="PersonRecord&lt;div&gt;Repository&lt;/div&gt;" style="rounded=1;whiteSpace=wrap;html=1;sketch=1;curveFitting=1;jiggle=2;fillColor=none;strokeColor=#000000;fontFamily=Mynerve;fontSource=https%3A%2F%2Ffonts.googleapis.com%2Fcss%3Ffamily%3DMynerve;fontSize=20;fontStyle=0" parent="1" vertex="1">
          <mxGeometry x="482" y="2430" width="160" height="70" as="geometry" />
        </mxCell>
        <mxCell id="1Mxk7JRTgu_WLiJaFfyo-6" value="&amp;nbsp;implements&amp;nbsp;" style="edgeStyle=orthogonalEdgeStyle;rounded=0;orthogonalLoop=1;jettySize=auto;html=1;sketch=1;curveFitting=1;jiggle=2;fontFamily=Mynerve;fontSource=https%3A%2F%2Ffonts.googleapis.com%2Fcss%3Ffamily%3DMynerve;fontSize=21;labelBackgroundColor=#F7F9FB;endArrow=open;endFill=0;endSize=11;entryX=0.5;entryY=1;entryDx=0;entryDy=0;exitX=0.5;exitY=0;exitDx=0;exitDy=0;" parent="1" source="1Mxk7JRTgu_WLiJaFfyo-8" target="1Mxk7JRTgu_WLiJaFfyo-5" edge="1">
          <mxGeometry x="0.2195" relative="1" as="geometry">
            <Array as="points">
              <mxPoint x="562" y="2680" />
              <mxPoint x="562" y="2500" />
            </Array>
            <mxPoint as="offset" />
          </mxGeometry>
        </mxCell>
        <mxCell id="1Mxk7JRTgu_WLiJaFfyo-8" value="PersonRecord&lt;div&gt;Repository&lt;/div&gt;&lt;div&gt;Test-Double&lt;/div&gt;" style="rounded=1;whiteSpace=wrap;html=1;sketch=1;curveFitting=1;jiggle=2;fillColor=#F7F9FB;strokeColor=#000000;fontFamily=Mynerve;fontSource=https%3A%2F%2Ffonts.googleapis.com%2Fcss%3Ffamily%3DMynerve;fontSize=21;fillStyle=solid;fontStyle=0" parent="1" vertex="1">
          <mxGeometry x="482" y="2655" width="160" height="90" as="geometry" />
        </mxCell>
        <mxCell id="1Mxk7JRTgu_WLiJaFfyo-13" value="3" style="rounded=0;whiteSpace=wrap;html=1;fontStyle=1;fillColor=#000000;fontColor=#FFFFFF;fontSize=20;" parent="1" vertex="1">
          <mxGeometry x="60" y="2650" width="30" height="30" as="geometry" />
        </mxCell>
        <mxCell id="1Mxk7JRTgu_WLiJaFfyo-18" value="PersonRecord&lt;div&gt;Repository&lt;/div&gt;&lt;div&gt;Assert&lt;/div&gt;" style="rounded=1;whiteSpace=wrap;html=1;sketch=1;curveFitting=1;jiggle=2;fillColor=#F7BCFD;strokeColor=#000000;fontFamily=Mynerve;fontSource=https%3A%2F%2Ffonts.googleapis.com%2Fcss%3Ffamily%3DMynerve;fontSize=21;fillStyle=solid;fontStyle=0" parent="1" vertex="1">
          <mxGeometry x="482" y="2875" width="160" height="90" as="geometry" />
        </mxCell>
        <mxCell id="1Mxk7JRTgu_WLiJaFfyo-20" value="provides&lt;div&gt;assertions&lt;/div&gt;" style="edgeStyle=orthogonalEdgeStyle;rounded=0;orthogonalLoop=1;jettySize=auto;html=1;entryX=0.5;entryY=1;entryDx=0;entryDy=0;sketch=1;curveFitting=1;jiggle=2;fontSize=21;fontFamily=Mynerve;fontSource=https%3A%2F%2Ffonts.googleapis.com%2Fcss%3Ffamily%3DMynerve;labelBackgroundColor=#F7F9FB;exitX=0.5;exitY=0;exitDx=0;exitDy=0;endArrow=open;endFill=0;endSize=11;" parent="1" source="1Mxk7JRTgu_WLiJaFfyo-18" target="1Mxk7JRTgu_WLiJaFfyo-8" edge="1">
          <mxGeometry x="-0.0769" relative="1" as="geometry">
            <mxPoint x="460" y="2720" as="sourcePoint" />
            <mxPoint x="320" y="2720" as="targetPoint" />
            <mxPoint as="offset" />
          </mxGeometry>
        </mxCell>
        <mxCell id="MhupQ-evqayAu4trgvs4-1" value="PersonRecord" style="rounded=1;whiteSpace=wrap;html=1;sketch=1;curveFitting=1;jiggle=2;fillColor=none;strokeColor=#000000;fontFamily=Mynerve;fontSource=https%3A%2F%2Ffonts.googleapis.com%2Fcss%3Ffamily%3DMynerve;fontSize=20;fontStyle=0" parent="1" vertex="1">
          <mxGeometry x="162" y="2430" width="160" height="70" as="geometry" />
        </mxCell>
        <mxCell id="MhupQ-evqayAu4trgvs4-2" value="PersonRecord&lt;div&gt;&lt;span style=&quot;background-color: initial;&quot;&gt;Assert&lt;/span&gt;&lt;/div&gt;" style="rounded=1;whiteSpace=wrap;html=1;sketch=1;curveFitting=1;jiggle=2;fillColor=#F7BCFD;strokeColor=#000000;fontFamily=Mynerve;fontSource=https%3A%2F%2Ffonts.googleapis.com%2Fcss%3Ffamily%3DMynerve;fontSize=21;fillStyle=solid;fontStyle=0" parent="1" vertex="1">
          <mxGeometry x="162" y="2875" width="160" height="90" as="geometry" />
        </mxCell>
        <mxCell id="MhupQ-evqayAu4trgvs4-3" value="provides&lt;div&gt;assertions&lt;/div&gt;" style="edgeStyle=orthogonalEdgeStyle;rounded=0;orthogonalLoop=1;jettySize=auto;html=1;entryX=0.5;entryY=1;entryDx=0;entryDy=0;sketch=1;curveFitting=1;jiggle=2;fontSize=21;fontFamily=Mynerve;fontSource=https%3A%2F%2Ffonts.googleapis.com%2Fcss%3Ffamily%3DMynerve;labelBackgroundColor=#F7F9FB;exitX=0.5;exitY=0;exitDx=0;exitDy=0;endArrow=open;endFill=0;endSize=11;" parent="1" source="MhupQ-evqayAu4trgvs4-2" target="MhupQ-evqayAu4trgvs4-1" edge="1">
          <mxGeometry x="-0.7" relative="1" as="geometry">
            <mxPoint x="239.5" y="2785" as="sourcePoint" />
            <mxPoint x="239.5" y="2680" as="targetPoint" />
            <mxPoint as="offset" />
          </mxGeometry>
        </mxCell>
        <mxCell id="Qc-zyvTEPxVU0OrYSUBz-1" value="test/src" style="rounded=1;whiteSpace=wrap;html=1;sketch=1;curveFitting=1;jiggle=2;fillColor=none;fontColor=#333333;strokeColor=#000000;verticalAlign=bottom;align=left;fontFamily=Mynerve;fontSource=https%3A%2F%2Ffonts.googleapis.com%2Fcss%3Ffamily%3DMynerve;fontSize=17;spacingLeft=8;spacingBottom=4;dashed=1;dashPattern=12 12;fontStyle=0;arcSize=6;" vertex="1" parent="1">
          <mxGeometry x="960" y="2140" width="640" height="350" as="geometry" />
        </mxCell>
        <mxCell id="Qc-zyvTEPxVU0OrYSUBz-2" value="Generic (Kotlin specific) boilerplate to make concrete traits&amp;nbsp;&lt;div&gt;easy to implement.&amp;nbsp;&lt;span style=&quot;background-color: initial;&quot;&gt;Check code examples for more details.&lt;/span&gt;&lt;/div&gt;" style="rounded=1;whiteSpace=wrap;html=1;sketch=1;curveFitting=1;jiggle=2;fillColor=#FFD6A2;fontColor=#333333;strokeColor=#000000;verticalAlign=bottom;align=center;fontFamily=Courier New;fontSize=11;spacingLeft=12;spacingTop=2;dashed=1;dashPattern=12 12;fontStyle=0;spacingBottom=6;arcSize=6;" vertex="1" parent="1">
          <mxGeometry x="1080" y="2310" width="440" height="150" as="geometry" />
        </mxCell>
        <mxCell id="Qc-zyvTEPxVU0OrYSUBz-3" value="&lt;div&gt;&lt;span style=&quot;background-color: initial;&quot;&gt;TraitsAware&lt;/span&gt;&lt;br&gt;&lt;/div&gt;" style="rounded=1;whiteSpace=wrap;html=1;sketch=1;curveFitting=1;jiggle=2;fillColor=#F7F9FB;strokeColor=#000000;fontFamily=Mynerve;fontSource=https%3A%2F%2Ffonts.googleapis.com%2Fcss%3Ffamily%3DMynerve;fontSize=20;fontStyle=0;fillStyle=solid;" vertex="1" parent="1">
          <mxGeometry x="1335" y="2340" width="160" height="70" as="geometry" />
        </mxCell>
        <mxCell id="Qc-zyvTEPxVU0OrYSUBz-4" value="main/src" style="rounded=1;whiteSpace=wrap;html=1;sketch=1;curveFitting=1;jiggle=2;fillColor=none;fontColor=#333333;strokeColor=#000000;verticalAlign=top;align=left;fontFamily=Mynerve;fontSource=https%3A%2F%2Ffonts.googleapis.com%2Fcss%3Ffamily%3DMynerve;fontSize=17;spacingLeft=8;spacingTop=2;dashed=1;dashPattern=12 12;fontStyle=0" vertex="1" parent="1">
          <mxGeometry x="960" y="1910" width="640" height="120" as="geometry" />
        </mxCell>
        <mxCell id="Qc-zyvTEPxVU0OrYSUBz-5" value="PersonRecord&lt;div&gt;Repository&lt;/div&gt;" style="rounded=1;whiteSpace=wrap;html=1;sketch=1;curveFitting=1;jiggle=2;fillColor=none;strokeColor=#000000;fontFamily=Mynerve;fontSource=https%3A%2F%2Ffonts.googleapis.com%2Fcss%3Ffamily%3DMynerve;fontSize=20;fontStyle=0" vertex="1" parent="1">
          <mxGeometry x="1060" y="1935" width="160" height="70" as="geometry" />
        </mxCell>
        <mxCell id="Qc-zyvTEPxVU0OrYSUBz-6" value="provides&lt;div style=&quot;font-size: 21px;&quot;&gt;test double&lt;/div&gt;" style="edgeStyle=orthogonalEdgeStyle;rounded=0;orthogonalLoop=1;jettySize=auto;html=1;sketch=1;curveFitting=1;jiggle=2;fontFamily=Mynerve;fontSource=https%3A%2F%2Ffonts.googleapis.com%2Fcss%3Ffamily%3DMynerve;fontSize=21;labelBackgroundColor=#F7F9FB;endArrow=open;endFill=0;endSize=11;" edge="1" parent="1" source="Qc-zyvTEPxVU0OrYSUBz-8" target="Qc-zyvTEPxVU0OrYSUBz-5">
          <mxGeometry relative="1" as="geometry" />
        </mxCell>
        <mxCell id="Qc-zyvTEPxVU0OrYSUBz-7" style="edgeStyle=orthogonalEdgeStyle;rounded=1;orthogonalLoop=1;jettySize=auto;html=1;entryX=0.5;entryY=0;entryDx=0;entryDy=0;sketch=1;curveFitting=1;jiggle=2;dashed=1;dashPattern=12 12;exitX=0.5;exitY=1;exitDx=0;exitDy=0;curved=0;endArrow=open;endFill=0;endSize=11;" edge="1" parent="1" source="Qc-zyvTEPxVU0OrYSUBz-8" target="Qc-zyvTEPxVU0OrYSUBz-16">
          <mxGeometry relative="1" as="geometry" />
        </mxCell>
        <mxCell id="Qc-zyvTEPxVU0OrYSUBz-8" value="PersonRecord&lt;div style=&quot;font-size: 21px;&quot;&gt;Repository&lt;/div&gt;&lt;div style=&quot;font-size: 21px;&quot;&gt;Trait&lt;/div&gt;" style="rounded=1;whiteSpace=wrap;html=1;sketch=1;curveFitting=1;jiggle=2;fillColor=#FFD6A2;strokeColor=#000000;fontFamily=Mynerve;fontSource=https%3A%2F%2Ffonts.googleapis.com%2Fcss%3Ffamily%3DMynerve;fontSize=21;fillStyle=solid;fontStyle=0" vertex="1" parent="1">
          <mxGeometry x="1060" y="2165" width="160" height="90" as="geometry" />
        </mxCell>
        <mxCell id="Qc-zyvTEPxVU0OrYSUBz-9" value="tests" style="edgeStyle=orthogonalEdgeStyle;rounded=0;orthogonalLoop=1;jettySize=auto;html=1;entryX=0.5;entryY=1;entryDx=0;entryDy=0;sketch=1;curveFitting=1;jiggle=2;fontFamily=Mynerve;fontSource=https%3A%2F%2Ffonts.googleapis.com%2Fcss%3Ffamily%3DMynerve;fontSize=21;labelBackgroundColor=#F7F9FB;endArrow=open;endFill=0;endSize=11;" edge="1" parent="1" source="Qc-zyvTEPxVU0OrYSUBz-12" target="Qc-zyvTEPxVU0OrYSUBz-15">
          <mxGeometry relative="1" as="geometry" />
        </mxCell>
        <mxCell id="Qc-zyvTEPxVU0OrYSUBz-10" value="&amp;nbsp;uses&amp;nbsp;" style="edgeStyle=orthogonalEdgeStyle;rounded=0;orthogonalLoop=1;jettySize=auto;html=1;entryX=1;entryY=0.5;entryDx=0;entryDy=0;sketch=1;curveFitting=1;jiggle=2;fontSize=21;fontFamily=Mynerve;fontSource=https%3A%2F%2Ffonts.googleapis.com%2Fcss%3Ffamily%3DMynerve;labelBackgroundColor=#F7F9FB;endArrow=open;endFill=0;endSize=11;" edge="1" parent="1" source="Qc-zyvTEPxVU0OrYSUBz-12" target="Qc-zyvTEPxVU0OrYSUBz-8">
          <mxGeometry relative="1" as="geometry" />
        </mxCell>
        <mxCell id="Qc-zyvTEPxVU0OrYSUBz-11" style="edgeStyle=orthogonalEdgeStyle;rounded=1;orthogonalLoop=1;jettySize=auto;html=1;entryX=0.5;entryY=0;entryDx=0;entryDy=0;sketch=1;curveFitting=1;jiggle=2;curved=0;exitX=0.5;exitY=1;exitDx=0;exitDy=0;dashed=1;dashPattern=12 12;endArrow=open;endFill=0;endSize=11;" edge="1" parent="1" source="Qc-zyvTEPxVU0OrYSUBz-12" target="Qc-zyvTEPxVU0OrYSUBz-3">
          <mxGeometry relative="1" as="geometry" />
        </mxCell>
        <mxCell id="Qc-zyvTEPxVU0OrYSUBz-12" value="RegisterPersonRecord&lt;div&gt;UseCase&lt;/div&gt;&lt;div&gt;Test&lt;/div&gt;" style="rounded=1;whiteSpace=wrap;html=1;sketch=1;curveFitting=1;jiggle=2;fillColor=none;strokeColor=#000000;fontFamily=Mynerve;fontSource=https%3A%2F%2Ffonts.googleapis.com%2Fcss%3Ffamily%3DMynerve;fontSize=21;fontStyle=0" vertex="1" parent="1">
          <mxGeometry x="1360" y="2165" width="220" height="90" as="geometry" />
        </mxCell>
        <mxCell id="Qc-zyvTEPxVU0OrYSUBz-13" value="1" style="rounded=0;whiteSpace=wrap;html=1;fontStyle=1;fillColor=#000000;fontColor=#FFFFFF;fontSize=20;" vertex="1" parent="1">
          <mxGeometry x="980" y="2160" width="30" height="30" as="geometry" />
        </mxCell>
        <mxCell id="Qc-zyvTEPxVU0OrYSUBz-14" value="&amp;nbsp;uses&amp;nbsp;" style="edgeStyle=orthogonalEdgeStyle;rounded=0;orthogonalLoop=1;jettySize=auto;html=1;sketch=1;curveFitting=1;jiggle=2;fontSize=21;fontFamily=Mynerve;fontSource=https%3A%2F%2Ffonts.googleapis.com%2Fcss%3Ffamily%3DMynerve;labelBackgroundColor=#F7F9FB;endArrow=open;endFill=0;endSize=11;" edge="1" parent="1" source="Qc-zyvTEPxVU0OrYSUBz-15" target="Qc-zyvTEPxVU0OrYSUBz-5">
          <mxGeometry relative="1" as="geometry" />
        </mxCell>
        <mxCell id="Qc-zyvTEPxVU0OrYSUBz-15" value="RegisterPersonRecord&lt;div&gt;UseCase&lt;/div&gt;" style="rounded=1;whiteSpace=wrap;html=1;sketch=1;curveFitting=1;jiggle=2;fillColor=none;strokeColor=#000000;fontFamily=Mynerve;fontSource=https%3A%2F%2Ffonts.googleapis.com%2Fcss%3Ffamily%3DMynerve;fontSize=20;fontStyle=0" vertex="1" parent="1">
          <mxGeometry x="1360" y="1935" width="220" height="70" as="geometry" />
        </mxCell>
        <mxCell id="Qc-zyvTEPxVU0OrYSUBz-16" value="Trait" style="rounded=1;whiteSpace=wrap;html=1;sketch=1;curveFitting=1;jiggle=2;fillColor=#F7F9FB;strokeColor=#000000;fontFamily=Mynerve;fontSource=https%3A%2F%2Ffonts.googleapis.com%2Fcss%3Ffamily%3DMynerve;fontSize=20;fontStyle=0;fillStyle=solid;" vertex="1" parent="1">
          <mxGeometry x="1100" y="2340" width="160" height="70" as="geometry" />
        </mxCell>
        <mxCell id="Qc-zyvTEPxVU0OrYSUBz-17" style="edgeStyle=orthogonalEdgeStyle;rounded=0;orthogonalLoop=1;jettySize=auto;html=1;entryX=1;entryY=0.5;entryDx=0;entryDy=0;sketch=1;curveFitting=1;jiggle=2;dashed=1;dashPattern=12 12;endArrow=open;endFill=0;endSize=11;" edge="1" parent="1" source="Qc-zyvTEPxVU0OrYSUBz-3" target="Qc-zyvTEPxVU0OrYSUBz-16">
          <mxGeometry relative="1" as="geometry" />
        </mxCell>
        <mxCell id="Qc-zyvTEPxVU0OrYSUBz-18" value="test/src" style="rounded=1;whiteSpace=wrap;html=1;sketch=1;curveFitting=1;jiggle=2;fillColor=none;fontColor=#333333;strokeColor=#000000;verticalAlign=bottom;align=left;fontFamily=Mynerve;fontSource=https%3A%2F%2Ffonts.googleapis.com%2Fcss%3Ffamily%3DMynerve;fontSize=17;spacingLeft=8;spacingBottom=4;dashed=1;dashPattern=12 12;fontStyle=0;arcSize=6;" vertex="1" parent="1">
          <mxGeometry x="960" y="2830" width="640" height="390" as="geometry" />
        </mxCell>
        <mxCell id="Qc-zyvTEPxVU0OrYSUBz-19" value="" style="rounded=1;whiteSpace=wrap;html=1;sketch=1;curveFitting=1;jiggle=2;fillColor=#FFD6A2;fontColor=#333333;strokeColor=#000000;verticalAlign=bottom;align=center;fontFamily=Courier New;fontSize=11;spacingLeft=12;spacingTop=2;dashed=1;dashPattern=12 12;fontStyle=0;spacingBottom=6;arcSize=6;" vertex="1" parent="1">
          <mxGeometry x="1100" y="3040" width="480" height="150" as="geometry" />
        </mxCell>
        <mxCell id="Qc-zyvTEPxVU0OrYSUBz-20" value="main/src" style="rounded=1;whiteSpace=wrap;html=1;sketch=1;curveFitting=1;jiggle=2;fillColor=none;fontColor=#333333;strokeColor=#000000;verticalAlign=top;align=left;fontFamily=Mynerve;fontSource=https%3A%2F%2Ffonts.googleapis.com%2Fcss%3Ffamily%3DMynerve;fontSize=17;spacingLeft=8;spacingTop=2;dashed=1;dashPattern=12 12;fontStyle=0" vertex="1" parent="1">
          <mxGeometry x="960" y="2600" width="640" height="130" as="geometry" />
        </mxCell>
        <mxCell id="Qc-zyvTEPxVU0OrYSUBz-21" value="PersonRecord&lt;div&gt;Repository&lt;/div&gt;" style="rounded=1;whiteSpace=wrap;html=1;sketch=1;curveFitting=1;jiggle=2;fillColor=none;strokeColor=#000000;fontFamily=Mynerve;fontSource=https%3A%2F%2Ffonts.googleapis.com%2Fcss%3Ffamily%3DMynerve;fontSize=20;fontStyle=0" vertex="1" parent="1">
          <mxGeometry x="1320" y="2630" width="160" height="70" as="geometry" />
        </mxCell>
        <mxCell id="Qc-zyvTEPxVU0OrYSUBz-22" value="&amp;nbsp;implements&amp;nbsp;" style="edgeStyle=orthogonalEdgeStyle;rounded=0;orthogonalLoop=1;jettySize=auto;html=1;sketch=1;curveFitting=1;jiggle=2;fontFamily=Mynerve;fontSource=https%3A%2F%2Ffonts.googleapis.com%2Fcss%3Ffamily%3DMynerve;fontSize=21;labelBackgroundColor=#F7F9FB;endArrow=open;endFill=0;endSize=11;entryX=0.5;entryY=1;entryDx=0;entryDy=0;exitX=0.75;exitY=0;exitDx=0;exitDy=0;" edge="1" parent="1" source="Qc-zyvTEPxVU0OrYSUBz-23" target="Qc-zyvTEPxVU0OrYSUBz-21">
          <mxGeometry x="-0.102" relative="1" as="geometry">
            <Array as="points">
              <mxPoint x="1510" y="2780" />
              <mxPoint x="1400" y="2780" />
            </Array>
            <mxPoint as="offset" />
          </mxGeometry>
        </mxCell>
        <mxCell id="Qc-zyvTEPxVU0OrYSUBz-23" value="PersonRecord&lt;div&gt;Repository&lt;/div&gt;&lt;div&gt;Mock&lt;/div&gt;" style="rounded=1;whiteSpace=wrap;html=1;sketch=1;curveFitting=1;jiggle=2;fillColor=#F7F9FB;strokeColor=#000000;fontFamily=Mynerve;fontSource=https%3A%2F%2Ffonts.googleapis.com%2Fcss%3Ffamily%3DMynerve;fontSize=21;fillStyle=solid;fontStyle=0" vertex="1" parent="1">
          <mxGeometry x="1390" y="3070" width="160" height="90" as="geometry" />
        </mxCell>
        <mxCell id="Qc-zyvTEPxVU0OrYSUBz-24" value="3" style="rounded=0;whiteSpace=wrap;html=1;fontStyle=1;fillColor=#000000;fontColor=#FFFFFF;fontSize=20;" vertex="1" parent="1">
          <mxGeometry x="980" y="2850" width="30" height="30" as="geometry" />
        </mxCell>
        <mxCell id="Qc-zyvTEPxVU0OrYSUBz-25" value="PersonRecord&lt;div&gt;Repository&lt;/div&gt;&lt;div&gt;Assert&lt;/div&gt;" style="rounded=1;whiteSpace=wrap;html=1;sketch=1;curveFitting=1;jiggle=2;fillColor=#F7BCFD;strokeColor=#000000;fontFamily=Mynerve;fontSource=https%3A%2F%2Ffonts.googleapis.com%2Fcss%3Ffamily%3DMynerve;fontSize=21;fillStyle=solid;fontStyle=0" vertex="1" parent="1">
          <mxGeometry x="1242" y="2880" width="160" height="90" as="geometry" />
        </mxCell>
        <mxCell id="Qc-zyvTEPxVU0OrYSUBz-26" value="provides&lt;div&gt;assertions&lt;/div&gt;" style="edgeStyle=orthogonalEdgeStyle;rounded=0;orthogonalLoop=1;jettySize=auto;html=1;entryX=0.25;entryY=0;entryDx=0;entryDy=0;sketch=1;curveFitting=1;jiggle=2;fontSize=21;fontFamily=Mynerve;fontSource=https%3A%2F%2Ffonts.googleapis.com%2Fcss%3Ffamily%3DMynerve;labelBackgroundColor=#F7F9FB;exitX=1;exitY=0.5;exitDx=0;exitDy=0;endArrow=open;endFill=0;endSize=11;" edge="1" parent="1" source="Qc-zyvTEPxVU0OrYSUBz-25" target="Qc-zyvTEPxVU0OrYSUBz-23">
          <mxGeometry x="0.1908" relative="1" as="geometry">
            <mxPoint x="1380" y="2920" as="sourcePoint" />
            <mxPoint x="1240" y="2920" as="targetPoint" />
            <mxPoint as="offset" />
          </mxGeometry>
        </mxCell>
        <mxCell id="Qc-zyvTEPxVU0OrYSUBz-27" value="PersonRecord" style="rounded=1;whiteSpace=wrap;html=1;sketch=1;curveFitting=1;jiggle=2;fillColor=none;strokeColor=#000000;fontFamily=Mynerve;fontSource=https%3A%2F%2Ffonts.googleapis.com%2Fcss%3Ffamily%3DMynerve;fontSize=20;fontStyle=0" vertex="1" parent="1">
          <mxGeometry x="1040" y="2630" width="160" height="70" as="geometry" />
        </mxCell>
        <mxCell id="Qc-zyvTEPxVU0OrYSUBz-28" value="PersonRecord&lt;div&gt;&lt;span style=&quot;background-color: initial;&quot;&gt;Assert&lt;/span&gt;&lt;/div&gt;" style="rounded=1;whiteSpace=wrap;html=1;sketch=1;curveFitting=1;jiggle=2;fillColor=#F7BCFD;strokeColor=#000000;fontFamily=Mynerve;fontSource=https%3A%2F%2Ffonts.googleapis.com%2Fcss%3Ffamily%3DMynerve;fontSize=21;fillStyle=solid;fontStyle=0" vertex="1" parent="1">
          <mxGeometry x="1040" y="2880" width="160" height="90" as="geometry" />
        </mxCell>
        <mxCell id="Qc-zyvTEPxVU0OrYSUBz-29" value="provides&lt;div&gt;assertions&lt;/div&gt;" style="edgeStyle=orthogonalEdgeStyle;rounded=0;orthogonalLoop=1;jettySize=auto;html=1;entryX=0.5;entryY=1;entryDx=0;entryDy=0;sketch=1;curveFitting=1;jiggle=2;fontSize=21;fontFamily=Mynerve;fontSource=https%3A%2F%2Ffonts.googleapis.com%2Fcss%3Ffamily%3DMynerve;labelBackgroundColor=#F7F9FB;exitX=0.5;exitY=0;exitDx=0;exitDy=0;endArrow=open;endFill=0;endSize=11;" edge="1" parent="1" source="Qc-zyvTEPxVU0OrYSUBz-28" target="Qc-zyvTEPxVU0OrYSUBz-27">
          <mxGeometry x="0.1111" relative="1" as="geometry">
            <mxPoint x="1159.5" y="2985" as="sourcePoint" />
            <mxPoint x="1159.5" y="2880" as="targetPoint" />
            <mxPoint as="offset" />
          </mxGeometry>
        </mxCell>
        <mxCell id="Qc-zyvTEPxVU0OrYSUBz-30" style="edgeStyle=orthogonalEdgeStyle;rounded=0;orthogonalLoop=1;jettySize=auto;html=1;entryX=0;entryY=0.5;entryDx=0;entryDy=0;sketch=1;curveFitting=1;jiggle=2;endArrow=open;endFill=0;dashed=1;dashPattern=12 12;endSize=11;" edge="1" parent="1" source="Qc-zyvTEPxVU0OrYSUBz-31" target="Qc-zyvTEPxVU0OrYSUBz-23">
          <mxGeometry relative="1" as="geometry" />
        </mxCell>
        <mxCell id="Qc-zyvTEPxVU0OrYSUBz-31" value="PersonRecord&lt;div style=&quot;font-size: 21px;&quot;&gt;Repository&lt;/div&gt;&lt;div style=&quot;font-size: 21px;&quot;&gt;Trait&lt;/div&gt;" style="rounded=1;whiteSpace=wrap;html=1;sketch=1;curveFitting=1;jiggle=2;fillColor=#F7F9FB;strokeColor=#000000;fontFamily=Mynerve;fontSource=https%3A%2F%2Ffonts.googleapis.com%2Fcss%3Ffamily%3DMynerve;fontSize=21;fillStyle=solid;fontStyle=0" vertex="1" parent="1">
          <mxGeometry x="1130" y="3070" width="160" height="90" as="geometry" />
        </mxCell>
      </root>
    </mxGraphModel>
  </diagram>
</mxfile>
